<svg width="22" height="22" viewBox="0 0 22 22" fill="none" xmlns="http://www.w3.org/2000/svg">
<ellipse cx="8.90473" cy="6.21743" rx="4.7143" ry="4.30435" fill="#798294"/>
<path d="M1.04761 17.4087C1.04761 13.6051 4.131 10.5217 7.93456 10.5217H9.87498C13.6785 10.5217 16.7619 13.6051 16.7619 17.4087V17.4087C16.7619 18.3596 15.9911 19.1304 15.0402 19.1304H2.76935C1.81846 19.1304 1.04761 18.3596 1.04761 17.4087V17.4087Z" fill="#798294"/>
<ellipse cx="16.2382" cy="15.9782" rx="4.7143" ry="4.30435" fill="#1D2027"/>
<ellipse cx="16.2382" cy="15.978" rx="3.66668" ry="3.34783" fill="#798294"/>
<path d="M15.7144 4.20389C15.7144 3.04671 16.6524 2.10864 17.8096 2.10864V2.10864C18.9668 2.10864 19.9048 3.04672 19.9048 4.20389V16.4565H15.7144V4.20389Z" fill="#798294"/>
<rect width="2.45097" height="5.60915" rx="1.22548" transform="matrix(0.83445 -0.551084 0.620962 0.783841 16.676 3.26367)" fill="#798294"/>
</svg>
