<svg width="30" height="30" viewBox="0 0 30 30" fill="none" xmlns="http://www.w3.org/2000/svg">
<path d="M24 16C24.5523 16 25 15.5523 25 15C25 14.4477 24.5523 14 24 14V16ZM6.29289 14.2929C5.90237 14.6834 5.90237 15.3166 6.29289 15.7071L12.6569 22.0711C13.0474 22.4616 13.6805 22.4616 14.0711 22.0711C14.4616 21.6805 14.4616 21.0474 14.0711 20.6569L8.41421 15L14.0711 9.34315C14.4616 8.95262 14.4616 8.31946 14.0711 7.92893C13.6805 7.53841 13.0474 7.53841 12.6569 7.92893L6.29289 14.2929ZM24 14L7 14V16L24 16V14Z" fill="#DFE0E8"/>
</svg>
