<svg width="23" height="23" viewBox="0 0 23 23" fill="none" xmlns="http://www.w3.org/2000/svg">
<path d="M20.2461 1.94944C22.7391 4.47025 22.7386 8.50016 20.2448 11.0203L9.56116 21.5901C7.5838 23.5014 4.41484 23.4648 2.48303 21.5085C0.58296 19.5844 0.58296 16.5115 2.48303 14.5874L12.1572 5.01628C13.4149 3.77202 15.454 3.77202 16.7116 5.01628C17.9693 6.26054 17.9693 8.27793 16.7116 9.5222L7.45811 18.6772C7.12392 18.9965 6.59138 18.9874 6.26862 18.6567C5.95375 18.3342 5.95375 17.8229 6.26862 17.5003L15.5222 8.34538C16.11 7.73829 16.0891 6.77468 15.4754 6.19314C14.8803 5.62917 13.9418 5.62917 13.3467 6.19314L3.67257 15.7642C2.38425 17.0572 2.39933 19.1387 3.70623 20.4133C4.99992 21.675 7.07798 21.675 8.37167 20.4133L19.0553 9.84346C20.9591 7.96071 20.9596 4.90767 19.0566 3.02424C17.1536 1.14081 14.0677 1.14027 12.164 3.02297L1.4803 13.5928C1.1781 13.9419 0.647039 13.9826 0.294164 13.6836C-0.0587105 13.3846 -0.0998177 12.8592 0.202384 12.5101C0.230579 12.4776 0.261238 12.4472 0.294164 12.4193L10.9778 1.84947C13.5651 -0.654995 17.7146 -0.610275 20.2461 1.94944Z" fill="#798294"/>
</svg>
