<svg width="22" height="23" viewBox="0 0 22 23" fill="none" xmlns="http://www.w3.org/2000/svg">
<mask id="path-1-inside-1" fill="white">
<path d="M22 19V10.2884C22 8.83527 21.3678 7.45405 20.2681 6.50427L14.2681 1.32245C12.3909 -0.29873 9.60906 -0.298733 7.7319 1.32245L1.7319 6.50427C0.632155 7.45405 0 8.83527 0 10.2884V19C0 21.2091 1.79086 23 4 23H8.19242C8.7447 23 9.19242 22.5523 9.19242 22V17.2326C9.19242 16.6803 9.64013 16.2326 10.1924 16.2326H11.807C12.3593 16.2326 12.807 16.6803 12.807 17.2326V22C12.807 22.5523 13.2547 23 13.807 23H18C20.2091 23 22 21.2091 22 19Z"/>
</mask>
<path d="M22 19V10.2884C22 8.83527 21.3678 7.45405 20.2681 6.50427L14.2681 1.32245C12.3909 -0.29873 9.60906 -0.298733 7.7319 1.32245L1.7319 6.50427C0.632155 7.45405 0 8.83527 0 10.2884V19C0 21.2091 1.79086 23 4 23H8.19242C8.7447 23 9.19242 22.5523 9.19242 22V17.2326C9.19242 16.6803 9.64013 16.2326 10.1924 16.2326H11.807C12.3593 16.2326 12.807 16.6803 12.807 17.2326V22C12.807 22.5523 13.2547 23 13.807 23H18C20.2091 23 22 21.2091 22 19Z" fill="#DFE0E8"/>
<path d="M1.7319 6.50427L3.03914 8.01791L1.7319 6.50427ZM7.7319 1.32245L6.42466 -0.191199V-0.191199L7.7319 1.32245ZM14.2681 1.32245L12.9609 2.8361L14.2681 1.32245ZM20.2681 6.50427L21.5753 4.99062L20.2681 6.50427ZM20 10.2884V19H24V10.2884H20ZM2 19V10.2884H-2V19H2ZM3.03914 8.01791L9.03914 2.83609L6.42466 -0.191199L0.424661 4.99062L3.03914 8.01791ZM12.9609 2.8361L18.9609 8.01791L21.5753 4.99062L15.5753 -0.191196L12.9609 2.8361ZM8.19242 21H4V25H8.19242V21ZM18 21H13.807V25H18V21ZM7.19242 17.2326V22H11.1924V17.2326H7.19242ZM10.1924 18.2326H11.807V14.2326H10.1924V18.2326ZM10.807 17.2326V22H14.807V17.2326H10.807ZM11.807 18.2326C11.2547 18.2326 10.807 17.7849 10.807 17.2326H14.807C14.807 15.5757 13.4639 14.2326 11.807 14.2326V18.2326ZM11.1924 17.2326C11.1924 17.7849 10.7447 18.2326 10.1924 18.2326V14.2326C8.53556 14.2326 7.19242 15.5757 7.19242 17.2326H11.1924ZM13.807 21C14.3593 21 14.807 21.4477 14.807 22H10.807C10.807 23.6569 12.1502 25 13.807 25V21ZM8.19242 25C9.84927 25 11.1924 23.6569 11.1924 22H7.19242C7.19242 21.4477 7.64013 21 8.19242 21V25ZM9.03914 2.83609C10.1654 1.86339 11.8346 1.86339 12.9609 2.8361L15.5753 -0.191196C12.9473 -2.46085 9.05268 -2.46085 6.42466 -0.191199L9.03914 2.83609ZM-2 19C-2 22.3137 0.686294 25 4 25V21C2.89543 21 2 20.1046 2 19H-2ZM20 19C20 20.1046 19.1046 21 18 21V25C21.3137 25 24 22.3137 24 19H20ZM24 10.2884C24 8.25403 23.115 6.32032 21.5753 4.99062L18.9609 8.01791C19.6207 8.58778 20 9.41652 20 10.2884H24ZM2 10.2884C2 9.41652 2.37929 8.58778 3.03914 8.01791L0.424661 4.99062C-1.11498 6.32031 -2 8.25403 -2 10.2884H2Z" fill="#DFE0E8" mask="url(#path-1-inside-1)"/>
</svg>
