<svg width="22" height="22" viewBox="0 0 22 22" fill="none" xmlns="http://www.w3.org/2000/svg">
<path d="M15.6875 2.79175C14.6022 2.79175 13.6072 3.11846 12.7302 3.76283C11.8894 4.38059 11.3296 5.16742 11 5.73957C10.6704 5.16738 10.1106 4.38059 9.2698 3.76283C8.39277 3.11846 7.39777 2.79175 6.3125 2.79175C3.28391 2.79175 1 5.14511 1 8.2659C1 11.6374 3.84934 13.9442 8.16285 17.4363C8.89535 18.0293 9.72563 18.7015 10.5886 19.4185C10.7023 19.5131 10.8484 19.5652 11 19.5652C11.1516 19.5652 11.2977 19.5131 11.4114 19.4185C12.2745 18.7015 13.1047 18.0293 13.8376 17.4359C18.1507 13.9442 21 11.6374 21 8.2659C21 5.14511 18.7161 2.79175 15.6875 2.79175Z" fill="#798294"/>
</svg>
