<svg width="19" height="19" viewBox="0 0 19 19" fill="none" xmlns="http://www.w3.org/2000/svg">
<path d="M13.9531 0.791748C12.9221 0.791748 11.9769 1.11846 11.1437 1.76283C10.3449 2.38059 9.81309 3.16742 9.5 3.73957C9.18691 3.16738 8.65509 2.38059 7.85631 1.76283C7.02313 1.11846 6.07788 0.791748 5.04688 0.791748C2.16971 0.791748 0 3.14511 0 6.2659C0 9.63744 2.70687 11.9442 6.80471 15.4363C7.50058 16.0293 8.28934 16.7015 9.10916 17.4185C9.21723 17.5131 9.35602 17.5652 9.5 17.5652C9.64398 17.5652 9.78277 17.5131 9.89084 17.4185C10.7107 16.7015 11.4995 16.0293 12.1957 15.4359C16.2931 11.9442 19 9.63744 19 6.2659C19 3.14511 16.8303 0.791748 13.9531 0.791748Z" fill="#798294"/>
</svg>
