<svg width="70" height="87" viewBox="0 0 70 87" fill="none" xmlns="http://www.w3.org/2000/svg">
<path d="M17.0608 59.92C18.1008 60.3733 18.6208 60.9867 18.6208 61.76C18.6208 62.24 18.3808 62.7067 17.9008 63.16C17.4208 63.6133 16.8741 63.9333 16.2608 64.12C14.7941 64.28 13.7541 64.3733 13.1408 64.4C9.56745 64.6933 7.04745 64.9733 5.58078 65.24C5.34078 65.4 4.83411 65.48 4.06078 65.48C3.31411 65.48 2.64745 65.1333 2.06078 64.44C1.50078 63.7467 1.22078 63.0267 1.22078 62.28C1.22078 61.9867 1.26078 61.7067 1.34078 61.44L6.46078 41.2C6.75411 40.0267 7.06078 39.2533 7.38078 38.88C7.72745 38.48 8.34078 38.28 9.22078 38.28C9.94078 38.28 10.5541 38.36 11.0608 38.52C11.5941 38.68 11.8741 38.92 11.9008 39.24C11.9008 39.9867 10.1808 47.24 6.74078 61C9.08745 60.6 12.0741 60.28 15.7008 60.04L17.0608 59.92ZM27.2573 65.84C24.9107 65.84 23.084 65.04 21.7773 63.44C20.4707 61.84 19.8173 59.8 19.8173 57.32C19.8173 55.24 20.3107 53.28 21.2973 51.44C22.3107 49.6 23.684 48.12 25.4173 47C27.1507 45.88 29.0573 45.32 31.1373 45.32C33.1907 45.32 34.8707 46 36.1773 47.36C37.5107 48.6933 38.1773 50.6667 38.1773 53.28C38.1773 55.12 37.6707 57.0267 36.6573 59C35.644 60.9733 34.284 62.6133 32.5773 63.92C30.8973 65.2 29.124 65.84 27.2573 65.84ZM27.8573 62.64C28.7107 62.64 29.564 62.1067 30.4173 61.04C31.2973 59.9733 32.0173 58.6267 32.5773 57C33.1373 55.3733 33.4173 53.7867 33.4173 52.24C33.4173 49.8667 32.4307 48.68 30.4573 48.68C29.364 48.68 28.364 49.2 27.4573 50.24C26.5507 51.28 25.8307 52.5733 25.2973 54.12C24.764 55.64 24.4973 57.0667 24.4973 58.4C24.4973 59.1733 24.6707 59.8933 25.0173 60.56C25.364 61.2 25.7907 61.7067 26.2973 62.08C26.8307 62.4533 27.3507 62.64 27.8573 62.64ZM46.2498 66.36C46.0365 66.7867 45.6898 67.16 45.2098 67.48C44.7565 67.8 44.2632 67.96 43.7298 67.96C43.2498 67.96 42.7565 67.7733 42.2498 67.4C41.7698 67.0533 41.5298 66.5867 41.5298 66V65.76L44.9298 51.88L41.2098 52.2C40.3832 52.2 39.9698 51.7867 39.9698 50.96C39.9698 50.2933 40.2098 49.6267 40.6898 48.96C40.7698 48.8533 42.5165 48.6133 45.9298 48.24L46.6498 44.92C47.2898 42.1467 48.3032 40.0533 49.6898 38.64C51.1032 37.2 53.0898 36.48 55.6498 36.48C56.8765 36.48 57.9432 36.7467 58.8498 37.28C59.7565 37.8133 60.4365 38.4933 60.8898 39.32C61.3432 40.1467 61.5698 40.9867 61.5698 41.84C61.5698 42.5067 61.4098 43.04 61.0898 43.44C60.7965 43.84 60.1698 44.04 59.2098 44.04C58.8632 44.04 58.6098 43.9333 58.4498 43.72C58.3165 43.5067 58.1698 43.1467 58.0098 42.64C57.8232 41.9733 57.5698 41.4533 57.2498 41.08C56.9298 40.7067 56.3698 40.52 55.5698 40.52C54.6632 40.52 53.8898 40.7733 53.2498 41.28C52.6365 41.76 52.2365 42.3467 52.0498 43.04L50.8098 47.76L53.2498 47.52C54.3165 47.4133 54.8898 47.36 54.9698 47.36C55.9832 47.36 56.4898 47.9467 56.4898 49.12C56.4898 49.5733 56.2898 49.9867 55.8898 50.36C55.5165 50.7067 55.1032 50.92 54.6498 51L49.8898 51.48L46.2498 66.36ZM63.0498 41.24C63.0498 40.4133 63.3032 39.68 63.8098 39.04C64.3432 38.4 65.0765 38.08 66.0098 38.08C66.9965 38.08 67.8498 38.3867 68.5698 39C69.3165 39.6133 69.6898 40.3067 69.6898 41.08C69.6898 41.8533 69.3165 42.52 68.5698 43.08C67.8232 43.64 66.9565 43.92 65.9698 43.92C65.0098 43.92 64.2765 43.68 63.7698 43.2C63.2898 42.6933 63.0498 42.04 63.0498 41.24ZM67.2498 48.32C65.8365 54.08 64.7565 58.4133 64.0098 61.32C63.9032 61.7467 63.8498 62.2133 63.8498 62.72L63.8898 63.84C63.8898 64.2933 63.7432 64.6133 63.4498 64.8C63.1832 64.9867 62.5965 65.0933 61.6898 65.12C60.8098 65.12 60.1432 65.0267 59.6898 64.84C59.2365 64.6533 59.0098 64.2533 59.0098 63.64C59.0098 63.3467 59.3432 61.7867 60.0098 58.96C60.7032 56.1333 61.6365 52.4533 62.8098 47.92L61.8898 46.72C61.8098 46.64 61.7698 46.5467 61.7698 46.44C61.7698 46.1733 62.0632 45.96 62.6498 45.8C63.2365 45.6133 64.0498 45.52 65.0898 45.52C65.9965 45.52 66.5698 45.7867 66.8098 46.32C67.0765 46.8267 67.2232 47.4933 67.2498 48.32Z" fill="white"/>
<rect x="21" y="25" width="19" height="3" rx="1.5" fill="white"/>
<rect x="23" y="31" width="15" height="3" rx="1.5" fill="white"/>
<rect x="25" y="37" width="11" height="3" rx="1.5" fill="white"/>
</svg>
